<svg xmlns="http://www.w3.org/2000/svg" xmlns:xlink="http://www.w3.org/1999/xlink" width="563.859" height="253.585" viewBox="0 0 563.859 253.585"><defs><filter id="Rectángulo_1926" width="124.212" height="78.176" x="416.225" y="115.791" filterUnits="userSpaceOnUse"><feOffset dy="2" input="SourceAlpha"/><feGaussianBlur result="blur" stdDeviation="1"/><feFlood flood-opacity=".043"/><feComposite in2="blur" operator="in"/><feComposite in="SourceGraphic"/></filter><filter id="Trazado_419" width="124.212" height="78.176" x="219.73" y="153.02" filterUnits="userSpaceOnUse"><feOffset dy="2" input="SourceAlpha"/><feGaussianBlur result="blur-2" stdDeviation="1"/><feFlood flood-opacity=".043"/><feComposite in2="blur-2" operator="in"/><feComposite in="SourceGraphic"/></filter><clipPath id="clip-path"><rect id="Rectángulo_1928" width="51.277" height="49.763" fill="#fff" data-name="Rectángulo 1928"/></clipPath><filter id="Rectángulo_1929" width="124.212" height="78.176" x="11.49" y="26.901" filterUnits="userSpaceOnUse"><feOffset dy="2" input="SourceAlpha"/><feGaussianBlur result="blur-3" stdDeviation="1"/><feFlood flood-opacity=".043"/><feComposite in2="blur-3" operator="in"/><feComposite in="SourceGraphic"/></filter><clipPath id="clip-path-2"><rect id="Rectángulo_1930" width="52.06" height="50.523" fill="#fff" data-name="Rectángulo 1930"/></clipPath></defs><g id="Grupo_7252" data-name="Grupo 7252" transform="translate(-577 -133.477)"><g id="Grupo_7245" data-name="Grupo 7245" transform="translate(996.225 250.268)"><g filter="url(#Rectángulo_1926)" transform="matrix(1, 0, 0, 1, -419.23, -116.79)"><rect id="Rectángulo_1926-2" width="118.212" height="72.176" fill="#fff" data-name="Rectángulo 1926" transform="translate(419.23 116.79)"/></g><ellipse id="Elipse_33" cx="3.914" cy="3.799" fill="#f9d048" data-name="Elipse 33" rx="3.914" ry="3.799" transform="translate(103.339 58.501)"/><path id="Trazado_411" fill="none" stroke="#ffd037" stroke-width="3" d="M1115.88,316.751v40.836h37.38" data-name="Trazado 411" transform="translate(-1008.626 -254.451)"/><path id="Trazado_412" fill="#ffd037" d="M1081.467,270.838h-31.049a3.84,3.84,0,0,0-3.888,3.767v33.9l7.767-7.535h27.17a3.84,3.84,0,0,0,3.888-3.766v-22.6A3.84,3.84,0,0,0,1081.467,270.838Zm0,26.37H1054.3l-3.879,3.766V274.605h31.049Z" data-name="Trazado 412" transform="translate(-1007.03 -253.395)"/></g><g id="Grupo_7247" data-name="Grupo 7247" transform="translate(799.73 260.715)"><g filter="url(#Trazado_419)" transform="matrix(1, 0, 0, 1, -222.73, -127.24)"><path id="Trazado_419-2" fill="#fff" d="M0,0H118.212V72.176H0Z" data-name="Trazado 419" transform="translate(222.73 154.02)"/></g><ellipse id="Elipse_35" cx="3.914" cy="3.799" fill="#3578e1" data-name="Elipse 35" rx="3.914" ry="3.799" transform="translate(103.338 85.281)"/><path id="Trazado_413" fill="none" stroke="#3578e1" stroke-width="3" d="M914.955,352.758h56.562V263.677h43.838" data-name="Trazado 413" transform="translate(-807.507 -263.677)"/><g id="Grupo_7246" clip-path="url(#clip-path)" data-name="Grupo 7246" transform="translate(28.967 38.937)"><path id="Trazado_414" fill="#3578e1" d="M881.73,326.486V309.9H866.774v6.221h-12.82V309.9H839v16.588h14.956v-6.22h4.273V341h8.547v6.221H881.73V330.634H866.774v6.22H862.5V320.266h4.273v6.22Z" data-name="Trazado 414" transform="translate(-834.726 -303.678)"/></g></g><g id="Grupo_7249" data-name="Grupo 7249" transform="translate(577.007 134.977)"><g filter="url(#Rectángulo_1929)" transform="matrix(1, 0, 0, 1, -0.01, -1.5)"><rect id="Rectángulo_1929-2" width="118.212" height="72.176" fill="#fff" data-name="Rectángulo 1929" transform="translate(14.49 27.9)"/></g><ellipse id="Elipse_37" cx="3.914" cy="3.799" fill="#1eb060" data-name="Elipse 37" rx="3.914" ry="3.799" transform="translate(117.82 84.902)"/><path id="Trazado_415" fill="none" stroke="#1eb060" stroke-width="3" d="M701.809,225.767v74.075H813.563" data-name="Trazado 415" transform="translate(-579.879 -137.066)"/><path id="Trazado_416" fill="none" stroke="#3578e1" stroke-width="3" d="M602.842,171.825V134.977H577.007" data-name="Trazado 416" transform="translate(-577.007 -134.977)"/><g id="Grupo_7248" clip-path="url(#clip-path-2)" data-name="Grupo 7248" transform="translate(43.839 34.378)"><path id="Trazado_417" fill="#1eb060" d="M665.438,202.691a25.5,25.5,0,0,1-7.657-1.179,2.169,2.169,0,0,0-2.191.505l-3.406,4.147a32.476,32.476,0,0,1-14.945-14.378l4.229-3.494a2.1,2.1,0,0,0,.521-2.147,22.835,22.835,0,0,1-1.214-7.431,2.136,2.136,0,0,0-2.147-2.085h-7.506c-1.171,0-2.581.506-2.581,2.085,0,19.556,16.768,35.808,36.9,35.808a2.229,2.229,0,0,0,2.147-2.484v-7.263A2.135,2.135,0,0,0,665.438,202.691Z" data-name="Trazado 417" transform="translate(-622.032 -170.314)"/></g></g><path id="Trazado_418" fill="none" stroke="#f9d048" stroke-width="3" d="M577,308h52.757v83.044" data-name="Trazado 418" transform="translate(0 -3.982)"/></g></svg>