<svg xmlns="http://www.w3.org/2000/svg" xmlns:xlink="http://www.w3.org/1999/xlink" width="100%" height="100%" version="1.1" viewBox="0 0 1085 280" xml:space="preserve" style="fill-rule:evenodd;clip-rule:evenodd;stroke-linejoin:round;stroke-miterlimit:2"><rect id="Page-1" width="1084.04" height="279.217" x="0" y="0" style="fill:none"/><g id="Layer-1"><text x="348.898" y="205.233" style="font-family:'LucidaGrande','Lucida Grande',sans-serif;font-weight:500;font-size:175px;fill:#fff">F<tspan x="435.591 535.957 637.434 737.8 819.879 878.204 968.573" y="205.233 205.233 205.233 205.233 205.233 205.233 205.233">onoster</tspan></text><path d="M168.747,209.886l0,48.333l95.304,-48.333l-95.304,-0Z" style="fill:#1eb060;fill-rule:nonzero"/><rect width="190.608" height="190.608" x="73.442" y="19.28" style="fill:#4ab96d"/><path d="M193.738,77.785l-92.916,-0c-1.796,-0 -3.25,1.454 -3.25,3.25l-0,22.829c-0,1.796 1.454,3.25 3.25,3.25l92.916,-0c1.796,-0 3.25,-1.454 3.25,-3.25l0,-22.829c0,-1.796 -1.454,-3.25 -3.25,-3.25" style="fill:#fff;fill-rule:nonzero"/><path d="M165.498,120.123l-22.83,-0.001c-1.795,0.001 -3.25,1.455 -3.25,3.251l0,22.829c0,1.796 1.455,3.25 3.25,3.25l22.83,-0c1.795,-0 3.25,-1.454 3.25,-3.25l-0,-22.829c-0,-1.796 -1.455,-3.25 -3.25,-3.25" style="fill:#fff;fill-rule:nonzero"/><path d="M123.651,120.777l-22.829,-0c-1.796,-0 -3.25,1.454 -3.25,3.25l-0,22.829c-0,1.796 1.454,3.25 3.25,3.25l22.829,-0c1.796,-0 3.25,-1.454 3.25,-3.25l-0,-22.829c-0,-1.796 -1.454,-3.25 -3.25,-3.25" style="fill:#fff;fill-rule:nonzero"/><path d="M236.674,77.785l-22.829,-0c-1.796,-0 -3.25,1.454 -3.25,3.25l-0,22.829c-0,1.796 1.454,3.25 3.25,3.25l22.829,-0c1.796,-0 3.25,-1.454 3.25,-3.25l0,-22.829c0,-1.796 -1.454,-3.25 -3.25,-3.25" style="fill:#fff;fill-rule:nonzero"/></g></svg>